<?xml version="1.0" encoding="UTF-8"?>
<svg version="1.1" xmlns="http://www.w3.org/2000/svg" width="126" height="32">
<path d="M0 0 C3.125 -0.1875 3.125 -0.1875 6 0 C5.54300722 5.02692063 3.00758252 8.14896261 0 12 C2.31 12 4.62 12 7 12 C7.33 10.35 7.66 8.7 8 7 C10.475 7.495 10.475 7.495 13 8 C13.33 9.32 13.66 10.64 14 12 C16.31 12 18.62 12 21 12 C21.38218767 13.65614657 21.71395102 15.32457024 22 17 C20.03177114 18.96822886 16.65191291 18.66248381 14 19 C14.495 21.97 14.495 21.97 15 25 C18.47823115 26.15941038 20.45895578 25.70820884 24 25 C23.8453125 23.700625 23.8453125 23.700625 23.6875 22.375 C24.0192783 18.79179433 24.851374 16.8569368 27.3125 14.20703125 C30.5812192 11.86898905 34.07502547 11.55241519 38 12 C40.42549186 13.0741464 41.94640384 14.26234171 44 16 C44.66 13.03 45.32 10.06 46 7 C47.32 6.67 48.64 6.34 50 6 C52.76223278 8.76223278 52.57856291 11.20706617 53 15 C54.1446875 14.2265625 54.1446875 14.2265625 55.3125 13.4375 C56.6428125 12.7259375 56.6428125 12.7259375 58 12 C58.99 12.33 59.98 12.66 61 13 C60.38461538 18.53846154 60.38461538 18.53846154 58.4375 20.875 C57.963125 21.24625 57.48875 21.6175 57 22 C57.99 23.0828125 57.99 23.0828125 59 24.1875 C61.1535853 27.21597933 61.41176754 28.39703406 61 32 C55.25 31.25 55.25 31.25 53 29 C52.01 30.485 52.01 30.485 51 32 C49.35 31.67 47.7 31.34 46 31 C45.505 28.03 45.505 28.03 45 25 C43.68 25.33 42.36 25.66 41 26 C41.020625 26.804375 41.04125 27.60875 41.0625 28.4375 C41 31 41 31 40 32 C38.2127943 32.15135944 36.41838124 32.22175778 34.625 32.25 C33.64789063 32.27578125 32.67078125 32.3015625 31.6640625 32.328125 C29 32 29 32 27.1484375 30.484375 C26.76945312 29.99453125 26.39046875 29.5046875 26 29 C25.34 29.99 24.68 30.98 24 32 C21.28515625 32.36328125 21.28515625 32.36328125 18.0625 32.3125 C17.00160156 32.30863281 15.94070312 32.30476563 14.84765625 32.30078125 C12 32 12 32 9 30 C6.82300712 25.98974995 6.82344832 22.50206785 7 18 C4.97954558 18.60183749 2.97888961 19.27306096 1 20 C-0.21693876 22.43387753 -0.31959896 24.41838846 -0.5625 27.125 C-0.64628906 28.03507812 -0.73007813 28.94515625 -0.81640625 29.8828125 C-0.87699219 30.58148437 -0.93757813 31.28015625 -1 32 C-2.98 32 -4.96 32 -7 32 C-7.05423638 30.08364783 -7.09289963 28.16685075 -7.125 26.25 C-7.14820313 25.18265625 -7.17140625 24.1153125 -7.1953125 23.015625 C-7.00487687 20.07529894 -6.52670104 18.47638122 -5 16 C-4.34 16 -3.68 16 -3 16 C-3 15.34 -3 14.68 -3 14 C-4.175625 14.0825 -5.35125 14.165 -6.5625 14.25 C-11.36548011 14.28424585 -14.05599047 12.62933968 -18 10 C-17.67 8.35 -17.34 6.7 -17 5 C-11.15849057 5.9509434 -11.15849057 5.9509434 -8.375 6.8125 C-5.84460941 7.28479028 -5.84460941 7.28479028 -3.8125 5.25 C-1.89013137 2.9326914 -1.89013137 2.9326914 0 0 Z " fill="#7F8180" transform="translate(65,0)"/>
<path d="M0 0 C0.66 0.66 1.32 1.32 2 2 C1.67 3.32 1.34 4.64 1 6 C-2.3 5.67 -5.6 5.34 -9 5 C-9 5.66 -9 6.32 -9 7 C-8.30132812 7.18175781 -7.60265625 7.36351562 -6.8828125 7.55078125 C-5.97273437 7.80214844 -5.06265625 8.05351562 -4.125 8.3125 C-2.76761719 8.67794922 -2.76761719 8.67794922 -1.3828125 9.05078125 C1 10 1 10 3 13 C3.02578125 12.15695313 3.0515625 11.31390625 3.078125 10.4453125 C3.13484375 9.34960938 3.1915625 8.25390625 3.25 7.125 C3.31960937 5.48917969 3.31960937 5.48917969 3.390625 3.8203125 C4 1 4 1 6.046875 -0.3828125 C6.69140625 -0.58648438 7.3359375 -0.79015625 8 -1 C8.99 -0.34 9.98 0.32 11 1 C11 1.99 11 2.98 11 4 C13.31 4 15.62 4 18 4 C18.38218767 5.65614657 18.71395102 7.32457024 19 9 C18 10 18 10 14.4375 10.0625 C13.303125 10.041875 12.16875 10.02125 11 10 C11.33 12.31 11.66 14.62 12 17 C14.97 17 17.94 17 21 17 C21.020625 15.96875 21.04125 14.9375 21.0625 13.875 C22.15772366 9.34807555 23.48482029 7.85514663 27.1015625 5.109375 C30.02474481 3.40117793 31.70621562 3.22911429 35 4 C37.91269772 5.8578656 40.42832709 7.85665419 42 11 C42.07092842 13.2072923 42.08415025 15.41667452 42.0625 17.625 C42.05347656 18.81351563 42.04445312 20.00203125 42.03515625 21.2265625 C42.02355469 22.14179688 42.01195312 23.05703125 42 24 C39.39521117 24.0809313 36.79293347 24.14045434 34.1875 24.1875 C33.08051758 24.22520508 33.08051758 24.22520508 31.95117188 24.26367188 C26.45025238 24.33834499 26.45025238 24.33834499 23.98828125 22.48828125 C23.66214844 21.99714844 23.33601563 21.50601562 23 21 C22.63261719 21.49113281 22.26523437 21.98226563 21.88671875 22.48828125 C19.19167724 24.64766233 17.21290785 24.29719058 13.8125 24.1875 C12.72582031 24.16042969 11.63914062 24.13335937 10.51953125 24.10546875 C9.27236328 24.05326172 9.27236328 24.05326172 8 24 C8 23.34 8 22.68 8 22 C7.34 22 6.68 22 6 22 C5.67 20.68 5.34 19.36 5 18 C4.34 18 3.68 18 3 18 C2.690625 18.804375 2.38125 19.60875 2.0625 20.4375 C1 23 1 23 0 24 C-1.95530764 24.12548989 -3.91570479 24.17575363 -5.875 24.1875 C-7.47988281 24.20876953 -7.47988281 24.20876953 -9.1171875 24.23046875 C-12 24 -12 24 -15 22 C-15.1875 18.375 -15.1875 18.375 -15 15 C-11.85262818 15.69941596 -8.97411124 16.76078698 -6 18 C-5.34 17.34 -4.68 16.68 -4 16 C-4.62648438 15.73445313 -5.25296875 15.46890625 -5.8984375 15.1953125 C-6.71570312 14.84210937 -7.53296875 14.48890625 -8.375 14.125 C-9.18710938 13.77695312 -9.99921875 13.42890625 -10.8359375 13.0703125 C-13 12 -13 12 -15 10 C-15.4375 7.5625 -15.4375 7.5625 -15 5 C-12.6167054 3.18116991 -11.04181663 2 -8 2 C-8 1.34 -8 0.68 -8 0 C-4.67679974 -1.10773342 -3.30835256 -0.93312508 0 0 Z M29 11 C28.34 12.32 27.68 13.64 27 15 C27.99 16.485 27.99 16.485 29 18 C31.54207971 18.33343551 31.54207971 18.33343551 34 18 C35.29633621 16.93354885 35.29633621 16.93354885 35.0625 14.4375 C35.041875 13.633125 35.02125 12.82875 35 12 C32.03 11.505 32.03 11.505 29 11 Z " fill="#90928E" transform="translate(15,8)"/>
<path d="M0 0 C3.125 -0.1875 3.125 -0.1875 6 0 C5.54300722 5.02692063 3.00758252 8.14896261 0 12 C2.31 12 4.62 12 7 12 C7.33 10.35 7.66 8.7 8 7 C10.475 7.495 10.475 7.495 13 8 C13.33 9.32 13.66 10.64 14 12 C16.31 12 18.62 12 21 12 C21.38218767 13.65614657 21.71395102 15.32457024 22 17 C20.03177114 18.96822886 16.65191291 18.66248381 14 19 C14.41586354 23.2787981 14.41586354 23.2787981 16.5625 26.875 C17.036875 27.24625 17.51125 27.6175 18 28 C14.8035914 29.06546953 12.34252724 29.07427838 9 29 C6.67409146 25.36576791 6.83734167 22.22911669 7 18 C4.97954558 18.60183749 2.97888961 19.27306096 1 20 C-0.21693876 22.43387753 -0.31959896 24.41838846 -0.5625 27.125 C-0.64628906 28.03507812 -0.73007813 28.94515625 -0.81640625 29.8828125 C-0.87699219 30.58148437 -0.93757813 31.28015625 -1 32 C-2.98 32 -4.96 32 -7 32 C-7.05423638 30.08364783 -7.09289963 28.16685075 -7.125 26.25 C-7.14820313 25.18265625 -7.17140625 24.1153125 -7.1953125 23.015625 C-7.00487687 20.07529894 -6.52670104 18.47638122 -5 16 C-4.34 16 -3.68 16 -3 16 C-3 15.34 -3 14.68 -3 14 C-4.175625 14.0825 -5.35125 14.165 -6.5625 14.25 C-11.36548011 14.28424585 -14.05599047 12.62933968 -18 10 C-17.67 8.35 -17.34 6.7 -17 5 C-11.15849057 5.9509434 -11.15849057 5.9509434 -8.375 6.8125 C-5.84460941 7.28479028 -5.84460941 7.28479028 -3.8125 5.25 C-1.89013137 2.9326914 -1.89013137 2.9326914 0 0 Z " fill="#7E7D7B" transform="translate(65,0)"/>
<path d="M0 0 C2.91269772 1.8578656 5.42832709 3.85665419 7 7 C7.07092842 9.2072923 7.08415025 11.41667452 7.0625 13.625 C7.05347656 14.81351563 7.04445312 16.00203125 7.03515625 17.2265625 C7.02355469 18.14179688 7.01195312 19.05703125 7 20 C4.39521117 20.0809313 1.79293347 20.14045434 -0.8125 20.1875 C-1.91948242 20.22520508 -1.91948242 20.22520508 -3.04882812 20.26367188 C-8.54974762 20.33834499 -8.54974762 20.33834499 -11.01171875 18.48828125 C-11.33785156 17.99714844 -11.66398437 17.50601562 -12 17 C-12.36738281 17.49113281 -12.73476563 17.98226563 -13.11328125 18.48828125 C-15.80832276 20.64766233 -17.78709215 20.29719058 -21.1875 20.1875 C-22.27417969 20.16042969 -23.36085938 20.13335937 -24.48046875 20.10546875 C-25.72763672 20.05326172 -25.72763672 20.05326172 -27 20 C-27 19.34 -27 18.68 -27 18 C-27.66 17.67 -28.32 17.34 -29 17 C-27.824375 17.309375 -27.824375 17.309375 -26.625 17.625 C-25.325625 17.810625 -25.325625 17.810625 -24 18 C-23.34 17.34 -22.68 16.68 -22 16 C-22.33 15.34 -22.66 14.68 -23 14 C-18.545 13.505 -18.545 13.505 -14 13 C-13.979375 11.96875 -13.95875 10.9375 -13.9375 9.875 C-12.84227634 5.34807555 -11.51517971 3.85514663 -7.8984375 1.109375 C-4.97525519 -0.59882207 -3.29378438 -0.77088571 0 0 Z M-6 7 C-6.66 8.32 -7.32 9.64 -8 11 C-7.01 12.485 -7.01 12.485 -6 14 C-3.45792029 14.33343551 -3.45792029 14.33343551 -1 14 C0.29633621 12.93354885 0.29633621 12.93354885 0.0625 10.4375 C0.041875 9.633125 0.02125 8.82875 0 8 C-2.97 7.505 -2.97 7.505 -6 7 Z " fill="#8F9090" transform="translate(50,12)"/>
<path d="M0 0 C-0.33 0.99 -0.66 1.98 -1 3 C-2.98 3.33 -4.96 3.66 -7 4 C-7.33 5.65 -7.66 7.3 -8 9 C-7.22914062 8.96519531 -6.45828125 8.93039063 -5.6640625 8.89453125 C-4.66117188 8.86746094 -3.65828125 8.84039062 -2.625 8.8125 C-1.12839844 8.76029297 -1.12839844 8.76029297 0.3984375 8.70703125 C1.25695312 8.80371094 2.11546875 8.90039062 3 9 C3.66 9.99 4.32 10.98 5 12 C2.35409986 12.02684679 -0.29153096 12.04676357 -2.9375 12.0625 C-4.06961914 12.07506836 -4.06961914 12.07506836 -5.22460938 12.08789062 C-7.14994313 12.09652441 -9.07535581 12.05224333 -11 12 C-11.33 11.67 -11.66 11.34 -12 11 C-12.144375 12.299375 -12.28875 13.59875 -12.4375 14.9375 C-12.875 18.875 -12.875 18.875 -14 20 C-15.95422866 20.15167148 -17.91509729 20.22179996 -19.875 20.25 C-21.47988281 20.28867187 -21.47988281 20.28867187 -23.1171875 20.328125 C-26 20 -26 20 -27.8828125 18.484375 C-28.25148438 17.99453125 -28.62015625 17.5046875 -29 17 C-25.92382812 16.70703125 -25.92382812 16.70703125 -22.84765625 16.4140625 C-22.23792969 16.27742188 -21.62820312 16.14078125 -21 16 C-20.67 15.34 -20.34 14.68 -20 14 C-16.9375 13.375 -16.9375 13.375 -14 13 C-14.103125 12.13375 -14.20625 11.2675 -14.3125 10.375 C-13.878911 5.69223883 -12.29806646 4.29806646 -9 1 C-5.8035914 -0.06546953 -3.34252724 -0.07427838 0 0 Z " fill="#848482" transform="translate(103,12)"/>
<path d="M0 0 C3.125 -0.1875 3.125 -0.1875 6 0 C5.53218278 4.99005032 3.11080256 9.15195521 0 13 C-4.42677627 14.47559209 -8.74272932 14.97164471 -13.078125 13.10546875 C-14.75968588 12.13822946 -16.38590846 11.07606103 -18 10 C-17.67 8.35 -17.34 6.7 -17 5 C-11.15849057 5.9509434 -11.15849057 5.9509434 -8.375 6.8125 C-5.84460941 7.28479028 -5.84460941 7.28479028 -3.8125 5.25 C-1.89013137 2.9326914 -1.89013137 2.9326914 0 0 Z " fill="#752E4B" transform="translate(65,0)"/>
<path d="M0 0 C0.66 0.66 1.32 1.32 2 2 C1.67 3.32 1.34 4.64 1 6 C-2.3 5.67 -5.6 5.34 -9 5 C-9 5.66 -9 6.32 -9 7 C-5.7 7.99 -2.4 8.98 1 10 C0 13 0 13 -2.625 14.375 C-7.01034909 15.18710168 -9.1286941 14.08454933 -13 12 C-15 10 -15 10 -15.4375 7.5625 C-15 5 -15 5 -12.625 3.1875 C-10 2 -10 2 -8 2 C-8 1.34 -8 0.68 -8 0 C-4.67679974 -1.10773342 -3.30835256 -0.93312508 0 0 Z " fill="#777A7A" transform="translate(15,8)"/>
<path d="M0 0 C2.91916538 -0.34751969 5.13195476 -0.53280018 7.69921875 1.04296875 C9.88339965 2.84637235 11.72206192 4.44412384 13 7 C13.1393329 11.33603979 13.04254111 15.66080671 13 20 C8.05 20 3.1 20 -2 20 C-1.34 18.35 -0.68 16.7 0 15 C0.845625 14.67 1.69125 14.34 2.5625 14 C3.366875 13.67 4.17125 13.34 5 13 C5.89386164 10.45224694 5.89386164 10.45224694 6 8 C4.35 7.67 2.7 7.34 1 7 C1 6.34 1 5.68 1 5 C5.75 5.75 5.75 5.75 8 8 C8.33 8.99 8.66 9.98 9 11 C9.78282648 9.20800528 9.78282648 9.20800528 10 7 C9.11001159 4.67256616 9.11001159 4.67256616 7 3 C3.39534252 2.18685089 3.39534252 2.18685089 0 2 C0 1.34 0 0.68 0 0 Z " fill="#797776" transform="translate(44,12)"/>
<path d="M0 0 C2.475 0.99 2.475 0.99 5 2 C5 2.99 5 3.98 5 5 C7.31 5 9.62 5 12 5 C12.38218767 6.65614657 12.71395102 8.32457024 13 10 C12 11 12 11 8.3125 11.1875 C4.5586147 11.15368121 1.50557404 10.40222961 -2 9 C-2.125 5.625 -2.125 5.625 -2 2 C-1.34 1.34 -0.68 0.68 0 0 Z " fill="#878A89" transform="translate(21,7)"/>
<path d="M0 0 C3.125 -0.1875 3.125 -0.1875 6 0 C5.45276317 3.37462715 4.9451 5.08235 3 8 C1.68352881 8.69937532 0.34977849 9.36729133 -1 10 C-1.66 10.66 -2.32 11.32 -3 12 C-6.125 11.625 -6.125 11.625 -9 11 C-8.01 10.34 -7.02 9.68 -6 9 C-6 8.34 -6 7.68 -6 7 C-4.68870078 5.64499081 -3.35308313 4.31328657 -2 3 C-1.34 2.01 -0.68 1.02 0 0 Z " fill="#6F1D3F" transform="translate(65,0)"/>
<path d="M0 0 C0.33 0 0.66 0 1 0 C1.02686553 1.97909398 1.04633375 3.95828971 1.0625 5.9375 C1.07410156 7.03964844 1.08570312 8.14179688 1.09765625 9.27734375 C1 12 1 12 0 13 C-1.95422866 13.15167148 -3.91509729 13.22179996 -5.875 13.25 C-7.47988281 13.28867187 -7.47988281 13.28867187 -9.1171875 13.328125 C-12 13 -12 13 -13.8828125 11.484375 C-14.25148438 10.99453125 -14.62015625 10.5046875 -15 10 C-11.92382812 9.70703125 -11.92382812 9.70703125 -8.84765625 9.4140625 C-8.23792969 9.27742188 -7.62820312 9.14078125 -7 9 C-6.67 8.34 -6.34 7.68 -6 7 C-2.9375 6.375 -2.9375 6.375 0 6 C0 4.02 0 2.04 0 0 Z " fill="#919391" transform="translate(89,19)"/>
<path d="M0 0 C0.99 0.66 1.98 1.32 3 2 C5.27912938 2.45394552 5.27912938 2.45394552 7.6875 2.625 C8.49574219 2.69976563 9.30398437 2.77453125 10.13671875 2.8515625 C10.75160156 2.90054687 11.36648437 2.94953125 12 3 C11.67 4.32 11.34 5.64 11 7 C9.20906809 7.08086147 7.41710372 7.13912702 5.625 7.1875 C4.12839844 7.23970703 4.12839844 7.23970703 2.6015625 7.29296875 C1.74304688 7.19628906 0.88453125 7.09960938 0 7 C-0.66 6.01 -1.32 5.02 -2 4 C-1.34 2.68 -0.68 1.36 0 0 Z " fill="#868783" transform="translate(94,25)"/>
<path d="M0 0 C1.8871875 0.0309375 1.8871875 0.0309375 3.8125 0.0625 C3.8125 1.3825 3.8125 2.7025 3.8125 4.0625 C2.20375 4.1553125 2.20375 4.1553125 0.5625 4.25 C-3.32281961 4.72395959 -3.32281961 4.72395959 -5.625 7.625 C-6.140625 8.429375 -6.65625 9.23375 -7.1875 10.0625 C-7.8475 9.7325 -8.5075 9.4025 -9.1875 9.0625 C-8.66481534 6.29973823 -8.07880413 3.7364124 -7.1875 1.0625 C-4.43671116 0.14557039 -2.82801087 -0.04636083 0 0 Z " fill="#8C8789" transform="translate(69.1875,12.9375)"/>
<path d="M0 0 C7.9968932 0.18796117 7.9968932 0.18796117 11.625 3.125 C13.39618832 6.82839377 12.92522656 9.06778712 12 13 C11.34 12.67 10.68 12.34 10 12 C9.814375 11.071875 9.62875 10.14375 9.4375 9.1875 C7.49952126 4.8902428 5.14798433 4.31294029 0.8984375 2.6640625 C0.27195313 2.44492188 -0.35453125 2.22578125 -1 2 C-0.67 1.34 -0.34 0.68 0 0 Z " fill="#858484" transform="translate(42,13)"/>
<path d="M0 0 C1.65 0.33 3.3 0.66 5 1 C5.33 2.65 5.66 4.3 6 6 C3.32333988 7.75012392 2.18073883 8.02213128 -1.0625 7.625 C-2.031875 7.41875 -3.00125 7.2125 -4 7 C-4.99 7 -5.98 7 -7 7 C-7 6.34 -7 5.68 -7 5 C-5.02 5 -3.04 5 -1 5 C-0.67 3.35 -0.34 1.7 0 0 Z " fill="#7A7272" transform="translate(73,7)"/>
<path d="M0 0 C2.31 0 4.62 0 7 0 C7 0.99 7 1.98 7 3 C7.66 3.66 8.32 4.32 9 5 C8 6 8 6 5.27734375 6.09765625 C3.62412109 6.08025391 3.62412109 6.08025391 1.9375 6.0625 C0.28041016 6.04896484 0.28041016 6.04896484 -1.41015625 6.03515625 C-2.26480469 6.02355469 -3.11945312 6.01195312 -4 6 C-4 5.34 -4 4.68 -4 4 C-4.66 3.67 -5.32 3.34 -6 3 C-4.824375 3.309375 -4.824375 3.309375 -3.625 3.625 C-2.75875 3.74875 -1.8925 3.8725 -1 4 C-0.34 3.34 0.32 2.68 1 2 C0.67 1.34 0.34 0.68 0 0 Z " fill="#989996" transform="translate(27,26)"/>
<path d="M0 0 C0.33 0 0.66 0 1 0 C1 3.96 1 7.92 1 12 C-3.16138263 12.08159574 -6.9472484 11.98248524 -11 11 C-11 10.67 -11 10.34 -11 10 C-7.535 9.505 -7.535 9.505 -4 9 C-3.67 7.68 -3.34 6.36 -3 5 C-2.34 5 -1.68 5 -1 5 C-0.67 3.35 -0.34 1.7 0 0 Z " fill="#686B68" transform="translate(111,14)"/>
<path d="M0 0 C-0.33 0.99 -0.66 1.98 -1 3 C-6.20754717 5.26415094 -6.20754717 5.26415094 -10 4 C-9.67 2.35 -9.34 0.7 -9 -1 C-5.23375329 -2.25541557 -3.62811066 -1.37061958 0 0 Z " fill="#908F8A" transform="translate(16,18)"/>
<path d="M0 0 C1.134375 0.020625 2.26875 0.04125 3.4375 0.0625 C3.81968767 1.71864657 4.15145102 3.38707024 4.4375 5.0625 C3.4375 6.0625 3.4375 6.0625 0.375 6.125 C-0.594375 6.104375 -1.56375 6.08375 -2.5625 6.0625 C-3.2225 4.4125 -3.8825 2.7625 -4.5625 1.0625 C-3.5625 0.0625 -3.5625 0.0625 0 0 Z " fill="#898A89" transform="translate(82.5625,11.9375)"/>
<path d="M0 0 C2 2 2 2 2.4375 4.9375 C3.02284311 8.12436804 3.51288909 9.05356538 6 11 C2.8035914 12.06546953 0.34252724 12.07427838 -3 12 C-3.33 10.68 -3.66 9.36 -4 8 C-3.01 7.67 -2.02 7.34 -1 7 C-0.67 4.69 -0.34 2.38 0 0 Z " fill="#7F8080" transform="translate(77,17)"/>
<path d="M0 0 C2.3828125 0.0234375 2.3828125 0.0234375 5.125 0.375 C6.03507813 0.48585938 6.94515625 0.59671875 7.8828125 0.7109375 C8.93082031 0.85402344 8.93082031 0.85402344 10 1 C10 2.33333333 10 3.66666667 10 5 C6.7 5 3.4 5 0 5 C0 4.34 0 3.68 0 3 C-0.66 2.67 -1.32 2.34 -2 2 C-1.34 1.34 -0.68 0.68 0 0 Z " fill="#838482" transform="translate(5,27)"/>
<path d="M0 0 C-0.33 0.99 -0.66 1.98 -1 3 C-2.98 3.33 -4.96 3.66 -7 4 C-7.33 5.32 -7.66 6.64 -8 8 C-9.32 7.34 -10.64 6.68 -12 6 C-8.84834792 0.14693185 -6.47215642 -0.1438257 0 0 Z " fill="#898C8A" transform="translate(103,12)"/>
<path d="M0 0 C0.33 0.99 0.66 1.98 1 3 C-0.60332791 3.08121924 -2.20784026 3.13929134 -3.8125 3.1875 C-4.70582031 3.22230469 -5.59914063 3.25710937 -6.51953125 3.29296875 C-9.41647515 2.95081002 -10.22555028 2.24606427 -12 0 C-7.66726186 -0.92844389 -4.33273814 -0.92844389 0 0 Z " fill="#878986" transform="translate(86,29)"/>
<path d="M0 0 C-0.33 1.32 -0.66 2.64 -1 4 C-1.99 4 -2.98 4 -4 4 C-4 4.66 -4 5.32 -4 6 C-5.32 5.67 -6.64 5.34 -8 5 C-8 3.68 -8 2.36 -8 1 C-4.93251126 -0.86240388 -3.40254489 -1.2151946 0 0 Z " fill="#878885" transform="translate(41,24)"/>
<path d="M0 0 C0 2.64 0 5.28 0 8 C-0.99 8.33 -1.98 8.66 -3 9 C-3.66 8.67 -4.32 8.34 -5 8 C-5.1875 5.125 -5.1875 5.125 -5 2 C-2 0 -2 0 0 0 Z " fill="#8E8B90" transform="translate(77,17)"/>
<path d="M0 0 C4.75 0.75 4.75 0.75 7 3 C7 3.99 7 4.98 7 6 C3.65626525 5.44271087 0.96687001 4.64826111 -2 3 C-1.34 2.01 -0.68 1.02 0 0 Z " fill="#989F9A" transform="translate(10,7)"/>
<path d="M0 0 C4.75 0.75 4.75 0.75 7 3 C7.39764263 4.98821313 7.73775349 6.98944339 8 9 C5.03 9.66 2.06 10.32 -1 11 C-0.67 10.34 -0.34 9.68 0 9 C2.0625 8.375 2.0625 8.375 4 8 C4.33 6.35 4.66 4.7 5 3 C3.35 2.67 1.7 2.34 0 2 C0 1.34 0 0.68 0 0 Z " fill="#757578" transform="translate(45,17)"/>
<path d="M0 0 C0.66 0 1.32 0 2 0 C1.34 1.98 0.68 3.96 0 6 C-1.79133978 6.05391993 -3.58313899 6.09275571 -5.375 6.125 C-6.37273438 6.14820313 -7.37046875 6.17140625 -8.3984375 6.1953125 C-11 6 -11 6 -13 4 C-12.31292969 3.96261719 -11.62585937 3.92523438 -10.91796875 3.88671875 C-10.01691406 3.82097656 -9.11585937 3.75523438 -8.1875 3.6875 C-7.29417969 3.62949219 -6.40085937 3.57148438 -5.48046875 3.51171875 C-2.65475171 2.92877555 -1.87494434 2.10016288 0 0 Z " fill="#7C3E50" transform="translate(65,8)"/>
<path d="M0 0 C0.99 0.33 1.98 0.66 3 1 C3 1.66 3 2.32 3 3 C3.99 3.33 4.98 3.66 6 4 C5.67 5.32 5.34 6.64 5 8 C3.66666667 6.66666667 2.33333333 5.33333333 1 4 C1 6.31 1 8.62 1 11 C-1.30441554 7.54337669 -1.25860135 6.05142119 -1 2 C-0.67 1.34 -0.34 0.68 0 0 Z " fill="#7C7E7C" transform="translate(20,14)"/>
<path d="M0 0 C0.99 1.32 1.98 2.64 3 4 C2.67 4.66 2.34 5.32 2 6 C-0.5625 6.625 -0.5625 6.625 -3 7 C-3 6.01 -3 5.02 -3 4 C-3.66 3.67 -4.32 3.34 -5 3 C-3.35 2.01 -1.7 1.02 0 0 Z " fill="#808080" transform="translate(16,19)"/>
<path d="M0 0 C1.65 0 3.3 0 5 0 C4.45276317 3.37462715 3.9451 5.08235 2 8 C1.34 8 0.68 8 0 8 C0 7.01 0 6.02 0 5 C0.66 5 1.32 5 2 5 C2 4.34 2 3.68 2 3 C1.34 3 0.68 3 0 3 C0 2.01 0 1.02 0 0 Z " fill="#62263F" transform="translate(66,0)"/>
<path d="M0 0 C1.65 0 3.3 0 5 0 C5 0.66 5 1.32 5 2 C5.99 2.66 6.98 3.32 8 4 C4.7 4 1.4 4 -2 4 C-1.34 2.68 -0.68 1.36 0 0 Z " fill="#696B69" transform="translate(97,17)"/>
<path d="M0 0 C2.97 1.65 5.94 3.3 9 5 C9 5.33 9 5.66 9 6 C6 6 3 6 0 6 C0 4.02 0 2.04 0 0 Z " fill="#707270" transform="translate(115,24)"/>
<path d="M0 0 C0.598125 0.350625 1.19625 0.70125 1.8125 1.0625 C0.1625 1.0625 -1.4875 1.0625 -3.1875 1.0625 C-3.1875 1.7225 -3.1875 2.3825 -3.1875 3.0625 C-2.5275 3.3925 -1.8675 3.7225 -1.1875 4.0625 C-1.1875 4.7225 -1.1875 5.3825 -1.1875 6.0625 C-2.8375 5.7325 -4.4875 5.4025 -6.1875 5.0625 C-5.8575 3.4125 -5.5275 1.7625 -5.1875 0.0625 C-2.1875 -0.9375 -2.1875 -0.9375 0 0 Z " fill="#999789" transform="translate(12.1875,16.9375)"/>
<path d="M0 0 C0.66 0 1.32 0 2 0 C2 0.66 2 1.32 2 2 C4.475 2.99 4.475 2.99 7 4 C6.67 4.66 6.34 5.32 6 6 C4.35 5.67 2.7 5.34 1 5 C0.67 3.35 0.34 1.7 0 0 Z " fill="#979898" transform="translate(110,26)"/>
<path d="M0 0 C0.99 1.485 0.99 1.485 2 3 C2.99 3 3.98 3 5 3 C4.34 4.98 3.68 6.96 3 9 C2.01 8.67 1.02 8.34 0 8 C0 5.36 0 2.72 0 0 Z M1 4 C2 6 2 6 2 6 Z " fill="#797B78" transform="translate(90,20)"/>
<path d="M0 0 C2 2 2 2 2.4375 4.9375 C3.02284311 8.12436804 3.51288909 9.05356538 6 11 C3 11 3 11 1.3125 10 C-0.7965 6.78628571 -0.18614585 3.78496571 0 0 Z " fill="#6F6F6F" transform="translate(77,17)"/>
<path d="M0 0 C0.99 0.495 0.99 0.495 2 1 C3.28571429 7.42857143 3.28571429 7.42857143 2 10 C1.34 10 0.68 10 0 10 C0 6.7 0 3.4 0 0 Z " fill="#676868" transform="translate(115,9)"/>
<path d="M0 0 C2.475 0.495 2.475 0.495 5 1 C4.67 2.65 4.34 4.3 4 6 C2.68 5.34 1.36 4.68 0 4 C0 2.68 0 1.36 0 0 Z " fill="#888686" transform="translate(73,7)"/>
<path d="M0 0 C0.99 0.33 1.98 0.66 3 1 C2.67 2.65 2.34 4.3 2 6 C0.02 6 -1.96 6 -4 6 C-4 5.67 -4 5.34 -4 5 C-2.35 5 -0.7 5 1 5 C0.34 3.68 -0.32 2.36 -1 1 C-0.67 0.67 -0.34 0.34 0 0 Z " fill="#ADAEAE" transform="translate(84,12)"/>
<path d="M0 0 C0 1.32 0 2.64 0 4 C-1.65 4 -3.3 4 -5 4 C-5 3.34 -5 2.68 -5 2 C-5.66 1.67 -6.32 1.34 -7 1 C-4 0 -4 0 0 0 Z " fill="#949193" transform="translate(73,13)"/>
<path d="M0 0 C0.99 0.33 1.98 0.66 3 1 C2.67 2.98 2.34 4.96 2 7 C0.68 5.35 -0.64 3.7 -2 2 C-1.34 1.34 -0.68 0.68 0 0 Z " fill="#969690" transform="translate(123,12)"/>
<path d="M0 0 C1.32 0.33 2.64 0.66 4 1 C3.67 2.65 3.34 4.3 3 6 C2.01 5.67 1.02 5.34 0 5 C0 3.35 0 1.7 0 0 Z " fill="#BCBFBE" transform="translate(30,12)"/>
<path d="M0 0 C1.875 0.1875 1.875 0.1875 4 1 C5.25 3.5625 5.25 3.5625 6 6 C4.02 5.34 2.04 4.68 0 4 C0 2.68 0 1.36 0 0 Z " fill="#6E1C3E" transform="translate(49,5)"/>
<path d="M0 0 C2.475 0.99 2.475 0.99 5 2 C5 2.99 5 3.98 5 5 C5.99 5.33 6.98 5.66 8 6 C6.68 6 5.36 6 4 6 C4 5.01 4 4.02 4 3 C2.68 3 1.36 3 0 3 C0 2.01 0 1.02 0 0 Z " fill="#A6B2AC" transform="translate(21,7)"/>
</svg>
